<svg width="35" height="35" viewBox="0 0 35 35" fill="none" xmlns="http://www.w3.org/2000/svg">
<path d="M27 25.1C27 23.3464 25.33 21.8555 23 21.3018M21 25.1C21 22.8753 18.314 21.0733 15 21.0733C11.686 21.0733 9 22.8753 9 25.1M21 18.0533C22.0609 18.0533 23.0783 17.6291 23.8284 16.874C24.5786 16.1188 25 15.0946 25 14.0267C25 12.9587 24.5786 11.9345 23.8284 11.1794C23.0783 10.4242 22.0609 10 21 10M15 18.0533C13.9391 18.0533 12.9217 17.6291 12.1716 16.874C11.4214 16.1188 11 15.0946 11 14.0267C11 12.9587 11.4214 11.9345 12.1716 11.1794C12.9217 10.4242 13.9391 10 15 10C16.0609 10 17.0783 10.4242 17.8284 11.1794C18.5786 11.9345 19 12.9587 19 14.0267C19 15.0946 18.5786 16.1188 17.8284 16.874C17.0783 17.6291 16.0609 18.0533 15 18.0533Z" stroke="#C2B734" stroke-width="2" stroke-linecap="round" stroke-linejoin="round"/>
</svg>
