<svg width="21" height="21" viewBox="0 0 21 21" fill="none" xmlns="http://www.w3.org/2000/svg">
<g clip-path="url(#clip0_11185_614)">
<path d="M7.31555 0.690692C5.21732 1.41859 3.40781 2.80015 2.15281 4.63246C0.897812 6.46477 0.263469 8.65124 0.342959 10.8707C0.422448 13.0902 1.21158 15.2257 2.59444 16.9635C3.97731 18.7013 5.88101 19.9499 8.02594 20.5258C9.76487 20.9746 11.5868 20.9943 13.335 20.5833C14.9187 20.2275 16.3829 19.4666 17.5842 18.375C18.8345 17.2042 19.742 15.7147 20.2092 14.0667C20.717 12.2746 20.8074 10.39 20.4734 8.55749H10.7084V12.6082H16.3636C16.2506 13.2543 16.0084 13.8709 15.6515 14.4211C15.2946 14.9714 14.8304 15.444 14.2866 15.8107C13.596 16.2675 12.8175 16.5749 12.0012 16.713C11.1824 16.8653 10.3426 16.8653 9.52383 16.713C8.69398 16.5415 7.90896 16.199 7.21875 15.7073C6.10993 14.9224 5.27736 13.8074 4.83984 12.5212C4.39493 11.211 4.39493 9.79059 4.83984 8.48038C5.15128 7.56198 5.66612 6.72579 6.34594 6.03421C7.12391 5.22825 8.10884 4.65214 9.19268 4.3691C10.2765 4.08606 11.4174 4.10702 12.4901 4.42968C13.3281 4.68691 14.0944 5.13636 14.7279 5.74218C15.3655 5.1078 16.0021 4.47179 16.6376 3.83413C16.9657 3.49124 17.3234 3.16475 17.6466 2.81366C16.6795 1.91374 15.5444 1.21349 14.3062 0.753036C12.0515 -0.0656524 9.58449 -0.0876539 7.31555 0.690692Z" fill="white"/>
<path d="M7.31555 0.690757C9.58431 -0.088118 12.0514 -0.0666957 14.3063 0.75146C15.5446 1.21504 16.6792 1.91866 17.6449 2.82193C17.3168 3.17302 16.9706 3.50115 16.6359 3.8424C15.9994 4.47787 15.3634 5.11115 14.7279 5.74224C14.0944 5.13642 13.3281 4.68698 12.4901 4.42974C11.4177 4.10595 10.2769 4.08378 9.19279 4.36566C8.10867 4.64755 7.12313 5.22259 6.3443 6.02771C5.66448 6.71929 5.14964 7.55549 4.83821 8.47388L1.43719 5.84068C2.65455 3.4266 4.76233 1.58002 7.31555 0.690757Z" fill="#E33629"/>
<path d="M0.534854 8.44917C0.717654 7.54321 1.02114 6.66585 1.4372 5.84058L4.83821 8.48034C4.3933 9.79056 4.3933 11.211 4.83821 12.5212C3.70509 13.3962 2.57142 14.2756 1.4372 15.1593C0.395648 13.0861 0.0779932 10.7239 0.534854 8.44917Z" fill="#F8BD00"/>
<path d="M10.7084 8.55591H20.4734C20.8074 10.3884 20.717 12.273 20.2092 14.0651C19.742 15.7131 18.8345 17.2026 17.5842 18.3734C16.4867 17.517 15.3842 16.6672 14.2866 15.8108C14.8307 15.4437 15.2952 14.9706 15.6521 14.4197C16.009 13.8689 16.251 13.2516 16.3636 12.605H10.7084C10.7067 11.2564 10.7084 9.90614 10.7084 8.55591Z" fill="#587DBD"/>
<path d="M1.43555 15.1594C2.56977 14.2844 3.70344 13.405 4.83656 12.5212C5.27495 13.8078 6.10871 14.9229 7.21875 15.7073C7.91111 16.1967 8.69782 16.5364 9.52875 16.7048C10.3475 16.8571 11.1873 16.8571 12.0061 16.7048C12.8225 16.5666 13.6009 16.2593 14.2915 15.8025C15.3891 16.6589 16.4916 17.5087 17.5891 18.3651C16.388 19.4574 14.9238 20.2189 13.3399 20.5751C11.5917 20.9861 9.7698 20.9664 8.03086 20.5176C6.65553 20.1504 5.37087 19.5031 4.25742 18.6162C3.0789 17.6805 2.11633 16.5014 1.43555 15.1594Z" fill="#319F43"/>
</g>
<defs>
<clipPath id="clip0_11185_614">
<rect width="21" height="21" fill="white"/>
</clipPath>
</defs>
</svg>
