<svg width="34" height="34" viewBox="0 0 34 34" fill="none" xmlns="http://www.w3.org/2000/svg">
<path d="M16.9999 2.83334C17.7876 2.83334 18.5583 2.89568 19.3119 3.02034L16.6599 5.67234C14.449 5.73869 12.3059 6.45053 10.4947 7.72011C8.68346 8.9897 7.28333 10.7615 6.46688 12.8172C5.65043 14.8729 5.45335 17.1225 5.89994 19.2888C6.34653 21.4552 7.41726 23.4435 8.98016 25.0086C10.543 26.5738 12.5298 27.6474 14.6954 28.0972C16.8611 28.5469 19.111 28.3531 21.1679 27.5396C23.2248 26.7262 24.9986 25.3286 26.2708 23.5193C27.5431 21.7099 28.258 19.5678 28.3276 17.357L30.9824 14.705C31.1052 15.4511 31.1666 16.2161 31.1666 17C31.1666 19.8019 30.3357 22.5409 28.7791 24.8706C27.2224 27.2003 25.0099 29.0161 22.4213 30.0883C19.8327 31.1605 16.9842 31.4411 14.2361 30.8945C11.4881 30.3478 8.96382 28.9986 6.98258 27.0174C5.00133 25.0361 3.65209 22.5119 3.10547 19.7638C2.55884 17.0157 2.83939 14.1673 3.91163 11.5787C4.98387 8.99004 6.79965 6.77751 9.12935 5.22086C11.459 3.6642 14.198 2.83334 16.9999 2.83334ZM29.5828 4.42568C29.0792 3.92202 28.4813 3.5225 27.8233 3.24992C27.1653 2.97734 26.4601 2.83704 25.7478 2.83704C25.0356 2.83704 24.3304 2.97734 23.6724 3.24992C23.0144 3.5225 22.4165 3.92202 21.9129 4.42568L14.5916 11.747C14.4374 11.9016 14.3211 12.0897 14.2516 12.2967L11.4636 20.57C11.3711 20.8449 11.357 21.1401 11.4231 21.4225C11.4893 21.7048 11.6328 21.9632 11.8378 22.1684C12.0427 22.3736 12.3008 22.5176 12.5831 22.5841C12.8654 22.6506 13.1606 22.637 13.4356 22.5448L21.7089 19.7625C21.9169 19.6934 22.106 19.5771 22.2614 19.4225L29.5828 12.0983C30.0864 11.5948 30.4859 10.9969 30.7585 10.3389C31.0311 9.6809 31.1714 8.97565 31.1714 8.26343C31.1714 7.5512 31.0311 6.84595 30.7585 6.18795C30.4859 5.52995 30.0864 4.92926 29.5828 4.42568ZM23.9161 6.43168C24.4019 5.94587 25.0608 5.67294 25.7478 5.67294C26.4349 5.67294 27.0938 5.94587 27.5796 6.43168C28.0654 6.91749 28.3383 7.57639 28.3383 8.26343C28.3383 8.95047 28.0654 9.60937 27.5796 10.0952L20.4906 17.1785L14.9684 19.0372L16.8271 13.5178L23.9161 6.43168Z" fill="#E5E7EB"/>
</svg>
