<svg width="33" height="30" viewBox="0 0 33 30" fill="none" xmlns="http://www.w3.org/2000/svg">
<path d="M16.5 8V10C15.4391 9.99823 14.4016 10.2905 13.5189 10.8398C12.6363 11.3891 11.9482 12.1706 11.542 13.0854C11.1357 14.0001 11.0296 15.0068 11.2371 15.9779C11.4446 16.949 11.9563 17.8407 12.7074 18.54L11.1968 19.95C10.1479 18.971 9.43355 17.7237 9.14413 16.3658C8.85472 15.0078 9.00324 13.6003 9.5709 12.3211C10.1386 11.042 11.0999 9.94872 12.3332 9.17955C13.5666 8.41039 15.0167 7.9999 16.5 8ZM21.8032 10.05C22.8521 11.029 23.5665 12.2763 23.8559 13.6342C24.1453 14.9922 23.9968 16.3997 23.4291 17.6789C22.8614 18.958 21.9001 20.0513 20.6668 20.8204C19.4334 21.5896 17.9833 22.0001 16.5 22V20C17.5609 20.0018 18.5984 19.7095 19.4811 19.1602C20.3637 18.6109 21.0518 17.8294 21.458 16.9146C21.8643 15.9999 21.9704 14.9932 21.7629 14.0221C21.5554 13.051 21.0437 12.1593 20.2926 11.46L21.8032 10.05ZM16.5 25L12.2146 21L16.5 17V25ZM16.5 13V5L20.7854 9L16.5 13Z" fill="#62666F"/>
</svg>
