<svg width="50" height="45" viewBox="0 0 50 45" fill="none" xmlns="http://www.w3.org/2000/svg">
<path d="M21.0344 22.9559V13.2C21.0344 12.0861 21.4819 11.0178 22.2785 10.2302C23.075 9.4425 24.1553 9 25.2818 9C26.4083 9 27.4886 9.4425 28.2852 10.2302C29.0817 11.0178 29.5292 12.0861 29.5292 13.2V14.6042M29.5292 23.0021V32.8C29.5292 33.9139 29.0817 34.9822 28.2852 35.7698C27.4886 36.5575 26.4083 37 25.2818 37C24.1553 37 23.075 36.5575 22.2785 35.7698C21.4819 34.9822 21.0344 33.9139 21.0344 32.8V31.379" stroke="#E5E7EB" stroke-width="2.4" stroke-linecap="round"/>
<path d="M25.282 27.4H15.3601C13.0212 27.4 11.1241 25.5198 11.1241 23.2C11.1241 20.8802 13.0212 19 15.3601 19H16.7795M25.282 19H35.1848C36.3123 18.9991 37.394 19.441 38.1919 20.2287C38.9899 21.0163 39.4388 22.0851 39.44 23.2C39.44 25.5198 37.535 27.4 35.1848 27.4H33.8235" stroke="#E5E7EB" stroke-width="2.4" stroke-linecap="round"/>
</svg>
