<svg width="50" height="45" viewBox="0 0 50 45" fill="none" xmlns="http://www.w3.org/2000/svg">
<path d="M35.9092 20.2105L39.7819 27.0789L35.9092 27.8421V32.4211H33.5856L28.9384 31.6579L28.1639 37H16.5458L14.9968 29.0777C12.6112 26.8523 11.1241 23.7027 11.1241 20.2105C11.1241 13.4665 16.6721 8 23.5167 8C30.3612 8 35.9092 13.4665 35.9092 20.2105Z" stroke="#E5E7EB" stroke-width="2" stroke-linecap="round" stroke-linejoin="round"/>
<path d="M19.3121 18.75C19.3121 18.0083 19.5522 17.2833 20.0021 16.6666C20.4519 16.0499 21.0913 15.5693 21.8394 15.2855C22.5875 15.0016 23.4106 14.9274 24.2048 15.0721C24.999 15.2168 25.7284 15.5739 26.301 16.0984C26.8735 16.6228 27.2635 17.291 27.4214 18.0184C27.5794 18.7458 27.4983 19.4998 27.1884 20.1851C26.8786 20.8703 26.3538 21.456 25.6806 21.868C25.0073 22.2801 24.2158 22.5 23.4061 22.5V24.75M23.4061 29.25V30" stroke="#E5E7EB" stroke-width="2" stroke-linecap="round" stroke-linejoin="round"/>
</svg>
