<svg width="34" height="34" viewBox="0 0 34 34" fill="none" xmlns="http://www.w3.org/2000/svg">
<path d="M25.0041 8.9958C23.8166 7.79768 22.3753 6.88158 20.7864 6.31517C19.1975 5.74875 17.5016 5.54648 15.8241 5.7233C10.6249 6.24747 6.34655 10.4691 5.76572 15.6683C4.98655 22.5391 10.2991 28.3333 16.9999 28.3333C19.1392 28.3333 21.2346 27.7263 23.0427 26.5828C24.8507 25.4393 26.2972 23.8062 27.2141 21.8733C27.6674 20.9241 26.9874 19.8333 25.9391 19.8333C25.4149 19.8333 24.9191 20.1166 24.6924 20.5841C23.8699 22.3536 22.4631 23.7858 20.7086 24.6398C18.9541 25.4938 16.9591 25.7175 15.0591 25.2733C11.9141 24.5791 9.37822 22.015 8.71239 18.87C8.4325 17.6265 8.43574 16.336 8.72187 15.094C9.008 13.8519 9.5697 12.6901 10.3654 11.6944C11.1611 10.6988 12.1705 9.89472 13.3189 9.34177C14.4673 8.78883 15.7253 8.50113 16.9999 8.49997C19.3516 8.49997 21.4482 9.47747 22.9782 11.0216L20.8391 13.1608C19.9466 14.0533 20.5699 15.5833 21.8307 15.5833H26.9166C27.6957 15.5833 28.3332 14.9458 28.3332 14.1666V9.0808C28.3332 7.81997 26.8032 7.18247 25.9107 8.07497L25.0041 8.9958Z" fill="#E2E8F0"/>
</svg>
