<svg width="35" height="35" viewBox="0 0 35 35" fill="none" xmlns="http://www.w3.org/2000/svg">
<path d="M25.1448 9.04642C23.9507 7.84155 22.5012 6.92031 20.9034 6.35071C19.3055 5.78111 17.6002 5.5777 15.9132 5.75551C10.6848 6.28262 6.38235 10.528 5.79825 15.7564C5.0147 22.6659 10.3571 28.4927 17.0956 28.4927C19.247 28.4927 21.3542 27.8823 23.1724 26.7323C24.9906 25.5824 26.4452 23.9401 27.3672 21.9963C27.8231 21.0418 27.1393 19.9449 26.0851 19.9449C25.5579 19.9449 25.0593 20.2298 24.8314 20.6999C24.0042 22.4793 22.5895 23.9196 20.8252 24.7784C19.0609 25.6372 17.0546 25.8622 15.1439 25.4155C11.9812 24.7174 9.43107 22.1388 8.76149 18.9761C8.48003 17.7257 8.48329 16.4279 8.77103 15.1789C9.05877 13.9299 9.62363 12.7615 10.4238 11.7602C11.224 10.759 12.2391 9.95039 13.3939 9.39434C14.5488 8.83828 15.8139 8.54897 17.0956 8.54779C19.4605 8.54779 21.569 9.53079 23.1076 11.0836L20.9564 13.2348C20.0589 14.1324 20.6857 15.671 21.9536 15.671H27.0681C27.8516 15.671 28.4927 15.0299 28.4927 14.2463V9.13189C28.4927 7.86397 26.9541 7.22288 26.0566 8.1204L25.1448 9.04642Z" fill="#E2E8F0"/>
</svg>
