<svg width="48" height="45" viewBox="0 0 48 45" fill="none" xmlns="http://www.w3.org/2000/svg">
<path d="M21.9009 35.9167C22.1642 36.3473 22.5429 36.705 22.9989 36.9536C23.455 37.2023 23.9723 37.3332 24.4989 37.3332C25.0255 37.3332 25.5428 37.2023 25.9988 36.9536C26.4549 36.705 26.8336 36.3473 27.0969 35.9167" stroke="#9CA3AF" stroke-width="2" stroke-linecap="round" stroke-linejoin="round"/>
<path d="M11.3919 27.8785C11.196 28.0813 11.0666 28.3336 11.0197 28.6046C10.9727 28.8755 11.0102 29.1536 11.1275 29.4048C11.2447 29.6561 11.4368 29.8697 11.6803 30.0198C11.9238 30.1698 12.2082 30.2498 12.4989 30.25H36.4989C36.7896 30.2501 37.0741 30.1704 37.3177 30.0206C37.5613 29.8709 37.7536 29.6575 37.8712 29.4064C37.9888 29.1553 38.0266 28.8774 37.9801 28.6064C37.9335 28.3354 37.8045 28.083 37.6089 27.8799C35.6139 25.9377 33.4989 23.8736 33.4989 17.5C33.4989 15.2457 32.5507 13.0837 30.8629 11.4896C29.175 9.89553 26.8859 9 24.4989 9C22.112 9 19.8228 9.89553 18.1349 11.4896C16.4471 13.0837 15.4989 15.2457 15.4989 17.5C15.4989 23.8736 13.3824 25.9377 11.3919 27.8785Z" stroke="#9CA3AF" stroke-width="2" stroke-linecap="round" stroke-linejoin="round"/>
</svg>
