<svg width="40" height="40" viewBox="0 0 40 40" fill="none" xmlns="http://www.w3.org/2000/svg">
<path d="M36.6666 20H32.5333C31.8049 19.9984 31.0961 20.2355 30.5152 20.6749C29.9343 21.1144 29.5133 21.732 29.3166 22.4333L25.4 36.3666C25.3747 36.4532 25.3221 36.5292 25.25 36.5833C25.1779 36.6374 25.0901 36.6666 25 36.6666C24.9098 36.6666 24.8221 36.6374 24.75 36.5833C24.6779 36.5292 24.6252 36.4532 24.6 36.3666L15.4 3.63331C15.3747 3.54677 15.3221 3.47074 15.25 3.41665C15.1779 3.36255 15.0901 3.33331 15 3.33331C14.9098 3.33331 14.8221 3.36255 14.75 3.41665C14.6779 3.47074 14.6252 3.54677 14.6 3.63331L10.6833 17.5666C10.4874 18.2652 10.0689 18.8808 9.49142 19.32C8.91389 19.7592 8.20885 19.9979 7.48331 20H3.33331" stroke="#99A1AF" stroke-width="3" stroke-linecap="round" stroke-linejoin="round"/>
</svg>
