<svg width="40" height="40" viewBox="0 0 40 40" fill="none" xmlns="http://www.w3.org/2000/svg">
<path d="M20.3667 3.33337H19.6333C18.7493 3.33337 17.9014 3.68456 17.2763 4.30968C16.6512 4.93481 16.3 5.78265 16.3 6.66671V6.96671C16.2994 7.55125 16.1451 8.12536 15.8526 8.63144C15.56 9.13751 15.1396 9.55777 14.6333 9.85004L13.9167 10.2667C13.4099 10.5593 12.8351 10.7133 12.25 10.7133C11.6649 10.7133 11.0901 10.5593 10.5833 10.2667L10.3333 10.1334C9.56844 9.69215 8.65973 9.57245 7.80667 9.80055C6.95361 10.0287 6.22592 10.5859 5.78334 11.35L5.41667 11.9834C4.97544 12.7483 4.85574 13.657 5.08385 14.51C5.31196 15.3631 5.86923 16.0908 6.63334 16.5334L6.88334 16.7C7.38713 16.9909 7.80604 17.4085 8.09842 17.9114C8.39081 18.4143 8.54649 18.985 8.55 19.5667V20.4167C8.55234 21.0041 8.39942 21.5816 8.10674 22.0909C7.81407 22.6001 7.39202 23.023 6.88334 23.3167L6.63334 23.4667C5.86923 23.9093 5.31196 24.637 5.08385 25.49C4.85574 26.3431 4.97544 27.2518 5.41667 28.0167L5.78334 28.65C6.22592 29.4141 6.95361 29.9714 7.80667 30.1995C8.65973 30.4276 9.56844 30.3079 10.3333 29.8667L10.5833 29.7334C11.0901 29.4408 11.6649 29.2868 12.25 29.2868C12.8351 29.2868 13.4099 29.4408 13.9167 29.7334L14.6333 30.15C15.1396 30.4423 15.56 30.8626 15.8526 31.3686C16.1451 31.8747 16.2994 32.4488 16.3 33.0334V33.3334C16.3 34.2174 16.6512 35.0653 17.2763 35.6904C17.9014 36.3155 18.7493 36.6667 19.6333 36.6667H20.3667C21.2507 36.6667 22.0986 36.3155 22.7237 35.6904C23.3488 35.0653 23.7 34.2174 23.7 33.3334V33.0334C23.7006 32.4488 23.8549 31.8747 24.1474 31.3686C24.44 30.8626 24.8604 30.4423 25.3667 30.15L26.0833 29.7334C26.5901 29.4408 27.1649 29.2868 27.75 29.2868C28.3351 29.2868 28.9099 29.4408 29.4167 29.7334L29.6667 29.8667C30.4316 30.3079 31.3403 30.4276 32.1933 30.1995C33.0464 29.9714 33.7741 29.4141 34.2167 28.65L34.5833 28C35.0246 27.2351 35.1443 26.3264 34.9162 25.4734C34.6881 24.6203 34.1308 23.8926 33.3667 23.45L33.1167 23.3167C32.608 23.023 32.1859 22.6001 31.8933 22.0909C31.6006 21.5816 31.4477 21.0041 31.45 20.4167V19.5834C31.4477 18.996 31.6006 18.4185 31.8933 17.9092C32.1859 17.3999 32.608 16.9771 33.1167 16.6834L33.3667 16.5334C34.1308 16.0908 34.6881 15.3631 34.9162 14.51C35.1443 13.657 35.0246 12.7483 34.5833 11.9834L34.2167 11.35C33.7741 10.5859 33.0464 10.0287 32.1933 9.80055C31.3403 9.57245 30.4316 9.69215 29.6667 10.1334L29.4167 10.2667C28.9099 10.5593 28.3351 10.7133 27.75 10.7133C27.1649 10.7133 26.5901 10.5593 26.0833 10.2667L25.3667 9.85004C24.8604 9.55777 24.44 9.13751 24.1474 8.63144C23.8549 8.12536 23.7006 7.55125 23.7 6.96671V6.66671C23.7 5.78265 23.3488 4.93481 22.7237 4.30968C22.0986 3.68456 21.2507 3.33337 20.3667 3.33337Z" stroke="#99A1AF" stroke-width="3" stroke-linecap="round" stroke-linejoin="round"/>
<path d="M20 25C22.7614 25 25 22.7614 25 20C25 17.2386 22.7614 15 20 15C17.2386 15 15 17.2386 15 20C15 22.7614 17.2386 25 20 25Z" stroke="#99A1AF" stroke-width="3" stroke-linecap="round" stroke-linejoin="round"/>
</svg>
