<svg width="23" height="23" viewBox="0 0 23 23" fill="none" xmlns="http://www.w3.org/2000/svg">
<path d="M10.3035 15.9238H12.1769V10.3036H10.3035V15.9238ZM11.9081 8.16143C12.0873 7.98159 12.1769 7.75897 12.1769 7.49357C12.1769 7.22817 12.087 7.00587 11.9071 6.82664C11.7273 6.64742 11.505 6.5575 11.2402 6.55688C10.9754 6.55625 10.7531 6.64618 10.5733 6.82664C10.3934 7.00711 10.3035 7.22942 10.3035 7.49357C10.3035 7.75772 10.3934 7.98034 10.5733 8.16143C10.7531 8.34253 10.9754 8.43214 11.2402 8.43026C11.505 8.42839 11.7276 8.33847 11.9081 8.1605M11.2402 20.6073C9.94446 20.6073 8.72676 20.3612 7.58712 19.8692C6.44748 19.3771 5.45614 18.7098 4.61312 17.8674C3.7701 17.025 3.10286 16.0337 2.61141 14.8934C2.11995 13.7532 1.87392 12.5355 1.87329 11.2403C1.87267 9.94521 2.11871 8.72751 2.61141 7.58724C3.10411 6.44697 3.77134 5.45564 4.61312 4.61324C5.45489 3.77084 6.44623 3.1036 7.58712 2.61153C8.72801 2.11945 9.94571 1.87341 11.2402 1.87341C12.5347 1.87341 13.7524 2.11945 14.8933 2.61153C16.0342 3.1036 17.0255 3.77084 17.8673 4.61324C18.7091 5.45564 19.3766 6.44697 19.87 7.58724C20.3633 8.72751 20.609 9.94521 20.6071 11.2403C20.6053 12.5355 20.3592 13.7532 19.869 14.8934C19.3788 16.0337 18.7116 17.025 17.8673 17.8674C17.0231 18.7098 16.0317 19.3774 14.8933 19.8701C13.7549 20.3628 12.5372 20.6085 11.2402 20.6073ZM11.2402 18.7339C13.3322 18.7339 15.1041 18.0079 16.556 16.5561C18.0078 15.1042 18.7338 13.3323 18.7338 11.2403C18.7338 9.14839 18.0078 7.37648 16.556 5.92461C15.1041 4.47274 13.3322 3.7468 11.2402 3.7468C9.14827 3.7468 7.37636 4.47274 5.92449 5.92461C4.47261 7.37648 3.74668 9.14839 3.74668 11.2403C3.74668 13.3323 4.47261 15.1042 5.92449 16.5561C7.37636 18.0079 9.14827 18.7339 11.2402 18.7339Z" fill="#E0E4EB"/>
</svg>
