<svg width="22" height="22" viewBox="0 0 22 22" fill="none" xmlns="http://www.w3.org/2000/svg">
<path d="M10.0747 15.5699H11.9064V10.0747H10.0747V15.5699ZM11.6436 7.98007C11.8188 7.80422 11.9064 7.58655 11.9064 7.32705C11.9064 7.06755 11.8185 6.85018 11.6427 6.67495C11.4668 6.49971 11.2494 6.41178 10.9906 6.41117C10.7317 6.41056 10.5143 6.49849 10.3385 6.67495C10.1626 6.85141 10.0747 7.06877 10.0747 7.32705C10.0747 7.58533 10.1626 7.803 10.3385 7.98007C10.5143 8.15714 10.7317 8.24476 10.9906 8.24293C11.2494 8.2411 11.4671 8.15317 11.6436 7.97916M10.9906 20.1493C9.7236 20.1493 8.53296 19.9088 7.41864 19.4276C6.30432 18.9465 5.33502 18.2941 4.51073 17.4704C3.68644 16.6467 3.03403 15.6774 2.5535 14.5625C2.07297 13.4476 1.8324 12.2569 1.83179 10.9906C1.83118 9.72421 2.07175 8.53357 2.5535 7.41864C3.03525 6.30371 3.68766 5.33441 4.51073 4.51073C5.3338 3.68705 6.3031 3.03464 7.41864 2.5535C8.53418 2.07236 9.72482 1.83179 10.9906 1.83179C12.2563 1.83179 13.4469 2.07236 14.5625 2.5535C15.678 3.03464 16.6473 3.68705 17.4704 4.51073C18.2935 5.33441 18.9462 6.30371 19.4285 7.41864C19.9109 8.53357 20.1512 9.72421 20.1493 10.9906C20.1475 12.2569 19.9069 13.4476 19.4276 14.5625C18.9483 15.6774 18.2959 16.6467 17.4704 17.4704C16.6449 18.2941 15.6756 18.9468 14.5625 19.4285C13.4494 19.9103 12.2587 20.1506 10.9906 20.1493ZM10.9906 18.3176C13.036 18.3176 14.7686 17.6078 16.1882 16.1882C17.6078 14.7686 18.3176 13.036 18.3176 10.9906C18.3176 8.9451 17.6078 7.21257 16.1882 5.79296C14.7686 4.37335 13.036 3.66354 10.9906 3.66354C8.9451 3.66354 7.21257 4.37335 5.79296 5.79296C4.37335 7.21257 3.66354 8.9451 3.66354 10.9906C3.66354 13.036 4.37335 14.7686 5.79296 16.1882C7.21257 17.6078 8.9451 18.3176 10.9906 18.3176Z" fill="#E0E4EB"/>
</svg>
