<svg width="32" height="32" viewBox="0 0 32 32" fill="none" xmlns="http://www.w3.org/2000/svg">
<path d="M13.6387 7.79361C13.6387 7.52084 13.6387 7.3864 13.6543 7.27339C13.7039 6.91627 13.8686 6.58508 14.1236 6.33013C14.3785 6.07518 14.7097 5.9104 15.0668 5.8608C15.1779 5.84521 15.3143 5.84521 15.5871 5.84521C15.8598 5.84521 15.9943 5.84521 16.1073 5.8608C16.4644 5.9104 16.7956 6.07518 17.0506 6.33013C17.3055 6.58508 17.4703 6.91627 17.5199 7.27339C17.5355 7.38445 17.5355 7.52084 17.5355 7.79361C17.5355 8.06639 17.5355 8.20083 17.5199 8.31384C17.4703 8.67096 17.3055 9.00215 17.0506 9.25709C16.7956 9.51204 16.4644 9.67683 16.1073 9.72642C15.9962 9.74201 15.8598 9.74201 15.5871 9.74201C15.3143 9.74201 15.1799 9.74201 15.0668 9.72642C14.7097 9.67683 14.3785 9.51204 14.1236 9.25709C13.8686 9.00215 13.7039 8.67096 13.6543 8.31384C13.6387 8.20278 13.6387 8.06639 13.6387 7.79361ZM13.6387 15.5872C13.6387 15.3144 13.6387 15.18 13.6543 15.067C13.7039 14.7099 13.8686 14.3787 14.1236 14.1237C14.3785 13.8688 14.7097 13.704 15.0668 13.6544C15.1779 13.6388 15.3143 13.6388 15.5871 13.6388C15.8598 13.6388 15.9943 13.6388 16.1073 13.6544C16.4644 13.704 16.7956 13.8688 17.0506 14.1237C17.3055 14.3787 17.4703 14.7099 17.5199 15.067C17.5355 15.178 17.5355 15.3144 17.5355 15.5872C17.5355 15.86 17.5355 15.9944 17.5199 16.1074C17.4703 16.4646 17.3055 16.7957 17.0506 17.0507C16.7956 17.3056 16.4644 17.4704 16.1073 17.52C15.9962 17.5356 15.8598 17.5356 15.5871 17.5356C15.3143 17.5356 15.1799 17.5356 15.0668 17.52C14.7097 17.4704 14.3785 17.3056 14.1236 17.0507C13.8686 16.7957 13.7039 16.4646 13.6543 16.1074C13.6387 15.9964 13.6387 15.86 13.6387 15.5872ZM13.6387 23.3808C13.6387 23.11 13.6387 22.9736 13.6543 22.8606C13.7041 22.5041 13.8688 22.1736 14.1233 21.919C14.3779 21.6645 14.7084 21.4998 15.0649 21.4499C15.1799 21.4343 15.3143 21.4343 15.5851 21.4343C15.8559 21.4343 15.9943 21.4343 16.1053 21.4499C16.4618 21.4998 16.7924 21.6645 17.0469 21.919C17.3014 22.1736 17.4661 22.5041 17.516 22.8606C17.5316 22.9736 17.5316 23.11 17.5316 23.3808C17.5316 23.6516 17.5316 23.788 17.516 23.901C17.4661 24.2575 17.3014 24.588 17.0469 24.8426C16.7924 25.0971 16.4618 25.2618 16.1053 25.3117C15.9923 25.3272 15.8559 25.3272 15.5851 25.3272C15.3143 25.3272 15.1779 25.3272 15.0649 25.3117C14.7084 25.2618 14.3779 25.0971 14.1233 24.8426C13.8688 24.588 13.7041 24.2575 13.6543 23.901C13.6387 23.788 13.6387 23.6516 13.6387 23.3808Z" fill="#E2E8F0"/>
</svg>
