<svg width="31" height="31" viewBox="0 0 31 31" fill="none" xmlns="http://www.w3.org/2000/svg">
<path d="M21.9583 11.625V9.04165C21.9583 7.32879 21.2779 5.68609 20.0667 4.47492C18.8555 3.26374 17.2128 2.58331 15.5 2.58331C13.7871 2.58331 12.1444 3.26374 10.9333 4.47492C9.72209 5.68609 9.04166 7.32879 9.04166 9.04165V11.625C8.01394 11.625 7.02832 12.0332 6.30162 12.7599C5.57491 13.4866 5.16666 14.4723 5.16666 15.5V24.5416C5.16666 25.5694 5.57491 26.555 6.30162 27.2817C7.02832 28.0084 8.01394 28.4166 9.04166 28.4166H21.9583C22.986 28.4166 23.9717 28.0084 24.6984 27.2817C25.4251 26.555 25.8333 25.5694 25.8333 24.5416V15.5C25.8333 14.4723 25.4251 13.4866 24.6984 12.7599C23.9717 12.0332 22.986 11.625 21.9583 11.625ZM11.625 9.04165C11.625 8.01393 12.0332 7.02831 12.76 6.30161C13.4867 5.5749 14.4723 5.16665 15.5 5.16665C16.5277 5.16665 17.5133 5.5749 18.24 6.30161C18.9667 7.02831 19.375 8.01393 19.375 9.04165V11.625H11.625V9.04165ZM23.25 24.5416C23.25 24.8842 23.1139 25.2128 22.8717 25.455C22.6294 25.6972 22.3009 25.8333 21.9583 25.8333H9.04166C8.69908 25.8333 8.37054 25.6972 8.12831 25.455C7.88608 25.2128 7.74999 24.8842 7.74999 24.5416V15.5C7.74999 15.1574 7.88608 14.8289 8.12831 14.5866C8.37054 14.3444 8.69908 14.2083 9.04166 14.2083H21.9583C22.3009 14.2083 22.6294 14.3444 22.8717 14.5866C23.1139 14.8289 23.25 15.1574 23.25 15.5V24.5416Z" fill="#7E8794"/>
</svg>
