<svg width="38" height="38" viewBox="0 0 38 38" fill="none" xmlns="http://www.w3.org/2000/svg">
<path fill-rule="evenodd" clip-rule="evenodd" d="M19.9501 18.2131L26.1108 24.3738L24.7682 25.7181L18.0501 19V9.49999H19.9501V18.2131ZM19.0001 34.8333C10.2553 34.8333 3.16675 27.7447 3.16675 19C3.16675 10.2552 10.2553 3.16666 19.0001 3.16666C27.7448 3.16666 34.8334 10.2552 34.8334 19C34.8334 27.7447 27.7448 34.8333 19.0001 34.8333ZM19.0001 32.9333C22.6954 32.9333 26.2394 31.4654 28.8524 28.8523C31.4654 26.2393 32.9334 22.6953 32.9334 19C32.9334 15.3046 31.4654 11.7606 28.8524 9.14763C26.2394 6.53463 22.6954 5.06666 19.0001 5.06666C15.3047 5.06666 11.7607 6.53463 9.14773 9.14763C6.53472 11.7606 5.06675 15.3046 5.06675 19C5.06675 22.6953 6.53472 26.2393 9.14773 28.8523C11.7607 31.4654 15.3047 32.9333 19.0001 32.9333Z" fill="#9CA3AF"/>
</svg>
